<svg width="14" height="12" viewBox="0 0 14 12" fill="none" xmlns="http://www.w3.org/2000/svg">
<path d="M10.479 5.91549C12.1592 5.91549 13.5212 7.27756 13.5212 8.95775C13.5212 10.6379 12.1592 12 10.479 12C9.03162 12 7.82033 10.9893 7.51242 9.63512H6.00894C5.70103 10.9893 4.48973 12 3.04237 12C1.36218 12 0.000114315 10.6379 0.000114315 8.95775C0.000114315 7.27756 1.36218 5.91549 3.04237 5.91549C4.60837 5.91549 5.89802 7.09871 6.06608 8.61992H7.45528C7.62334 7.09871 8.91298 5.91549 10.479 5.91549ZM3.04237 6.92958C1.92224 6.92958 1.0142 7.83762 1.0142 8.95775C1.0142 10.0779 1.92224 10.9859 3.04237 10.9859C4.16249 10.9859 5.07054 10.0779 5.07054 8.95775C5.07054 7.83762 4.16249 6.92958 3.04237 6.92958ZM10.479 6.92958C9.35886 6.92958 8.45082 7.83762 8.45082 8.95775C8.45082 10.0779 9.35886 10.9859 10.479 10.9859C11.5991 10.9859 12.5072 10.0779 12.5072 8.95775C12.5072 7.83762 11.5991 6.92958 10.479 6.92958ZM6.76068 4.05634C9.05206 4.05634 11.1754 4.28589 13.1303 4.74587C13.4029 4.81001 13.5719 5.08298 13.5078 5.35557C13.4436 5.62816 13.1707 5.79714 12.8981 5.733C11.022 5.29158 8.97634 5.07042 6.76068 5.07042C4.54502 5.07042 2.49934 5.29158 0.623289 5.733C0.350701 5.79714 0.0777312 5.62816 0.0135929 5.35557C-0.0505454 5.08298 0.118436 4.81001 0.391024 4.74587C2.34596 4.28589 4.46929 4.05634 6.76068 4.05634ZM9.26226 0C9.95376 0 10.5842 0.38328 10.9048 0.988117L10.9612 1.10408L11.9564 3.34337C12.0701 3.59926 11.9549 3.89891 11.699 4.01264C11.4644 4.11689 11.1931 4.02874 11.0619 3.81622L11.0297 3.75522L10.0345 1.51594C9.91119 1.2385 9.64986 1.05074 9.35246 1.01889L9.26226 1.01408H4.2591C3.9555 1.01408 3.67778 1.17663 3.52789 1.43547L3.48686 1.51594L2.49162 3.75522C2.37789 4.01112 2.07825 4.12637 1.82235 4.01264C1.58778 3.90838 1.4714 3.64791 1.54123 3.40812L1.56494 3.34337L2.56018 1.10408C2.84102 0.472181 3.44732 0.0517304 4.13022 0.00445207L4.2591 0H9.26226Z" fill="#7000FF"/>
</svg>
